# xmcd
#
# Track frame offsets: 
#        150
#        12656
#        23218
#        35358
#        48349
#        61488
#        74525
#        87737
#        104777
#        116938
#        128257
#        142457
#        156723
#        175403
#        194148
#        204434
#        219273
#        236684
#        250505
#        261559
#        278343
#        290537
#        305008
#        315589
#
# Disc length: 4402 seconds
#
# Revision: 2
# Processed by: cddbd v1.5.2PL0 Copyright (c) Steve Scherf et al.
# Submitted via: ExactAudioCopy v1.0b3
#
DISCID=82113018
DTITLE=The Supremes - SoulLegends
DYEAR=2006
DGENRE=Soul
TTITLE0=You can't hurry love
TTITLE1=He's my sunny boy
TTITLE2=You keep me hangin' on
TTITLE3=Stop! In the name of love
TTITLE4=Love is like an itching in my heart
TTITLE5=Back in my arms again
TTITLE6=Love child
TTITLE7=Love the one you're with
TTITLE8=Hang on, Sloopy
TTITLE9=These boots are made for walkin'
TTITLE10=Blowin' in the wind
TTITLE11=Aquarius - Let the sunshine in
TTITLE12=Come together
TTITLE13=Stoned love
TTITLE14=Can't take my eyes off you
TTITLE15=Never can say goodbye
TTITLE16=This guy's in love with you
TTITLE17=Stormy
TTITLE18=Baby, Baby, wo ist unsere Liebe?
TTITLE19=Try it, baby
TTITLE20=Blue moon [album version]
TTITLE21=When you wish upon a star
TTITLE22=Whistle while you work [unreleased alternate mix]
TTITLE23=My funny Valentine
EXTD=
EXTT0=
EXTT1=
EXTT2=
EXTT3=
EXTT4=
EXTT5=
EXTT6=
EXTT7=
EXTT8=
EXTT9=
EXTT10=
EXTT11=
EXTT12=
EXTT13=
EXTT14=
EXTT15=
EXTT16=
EXTT17=
EXTT18=
EXTT19=
EXTT20=
EXTT21=
EXTT22=
EXTT23=
PLAYORDER=
